<svg xmlns="http://www.w3.org/2000/svg" viewBox="0 0 640 360" width="640" height="360" role="img" aria-label="Itinerary Planner illustration">
<defs>
<linearGradient id="bg" x1="0" y1="0" x2="1" y2="1"><stop offset="0" stop-color="#060917"/><stop offset="1" stop-color="#151a35"/></linearGradient>
<radialGradient id="glow" cx="0.68" cy="0.45" r="0.6"><stop offset="0" stop-color="#FFE66D" stop-opacity="0.24"/><stop offset="1" stop-color="#FFE66D" stop-opacity="0"/></radialGradient>
<radialGradient id="glow2" cx="0.05" cy="1" r="0.7"><stop offset="0" stop-color="#4ECDC4" stop-opacity="0.16"/><stop offset="1" stop-color="#4ECDC4" stop-opacity="0"/></radialGradient>
<pattern id="grid" width="32" height="32" patternUnits="userSpaceOnUse"><path d="M32 0H0V32" fill="none" stroke="#fff" stroke-opacity="0.045"/></pattern>
<linearGradient id="acc" x1="0" y1="0" x2="1" y2="1"><stop offset="0" stop-color="#667eea"/><stop offset="1" stop-color="#764ba2"/></linearGradient>
<filter id="soft" x="-50%" y="-50%" width="200%" height="200%"><feGaussianBlur stdDeviation="8"/></filter>
<marker id="arr" viewBox="0 0 10 10" refX="7" refY="5" markerWidth="7" markerHeight="7" orient="auto-start-reverse"><path d="M0 0L10 5L0 10z" fill="#FFE66D"/></marker>
</defs>
<rect width="640" height="360" fill="url(#bg)"/>
<rect width="640" height="360" fill="url(#grid)"/>
<rect width="640" height="360" fill="url(#glow)"/>
<rect width="640" height="360" fill="url(#glow2)"/>
<rect x="60" y="80" width="340" height="210" rx="12" fill="#fff" fill-opacity="0.045" stroke="#fff" stroke-opacity="0.12"/><path d="M60 115 H400" stroke="#fff" stroke-opacity=".05"/><path d="M117 80 V290" stroke="#fff" stroke-opacity=".05"/><path d="M60 150 H400" stroke="#fff" stroke-opacity=".05"/><path d="M174 80 V290" stroke="#fff" stroke-opacity=".05"/><path d="M60 185 H400" stroke="#fff" stroke-opacity=".05"/><path d="M231 80 V290" stroke="#fff" stroke-opacity=".05"/><path d="M60 220 H400" stroke="#fff" stroke-opacity=".05"/><path d="M288 80 V290" stroke="#fff" stroke-opacity=".05"/><path d="M60 255 H400" stroke="#fff" stroke-opacity=".05"/><path d="M345 80 V290" stroke="#fff" stroke-opacity=".05"/><path d="M110 240 C150 200 150 160 180 150 S240 210 270 200 S320 130 350 120" fill="none" stroke="#FFE66D" stroke-width="2.5" stroke-dasharray="6 6"/><path d="M110 240 c-12 -14 -12 -32 0 -32 c12 0 12 18 0 32z" fill="#4ECDC4"/><circle cx="110" cy="219" r="4" fill="#060917"/><path d="M180 150 c-12 -14 -12 -32 0 -32 c12 0 12 18 0 32z" fill="#B19CD9"/><circle cx="180" cy="129" r="4" fill="#060917"/><path d="M270 200 c-12 -14 -12 -32 0 -32 c12 0 12 18 0 32z" fill="#FF6B6B"/><circle cx="270" cy="179" r="4" fill="#060917"/><path d="M350 120 c-12 -14 -12 -32 0 -32 c12 0 12 18 0 32z" fill="#FFE66D"/><circle cx="350" cy="99" r="4" fill="#060917"/><rect x="430" y="80" width="160" height="210" rx="12" fill="#fff" fill-opacity="0.045" stroke="#fff" stroke-opacity="0.12"/><text x="446" y="104" font-family="'Poppins', 'Segoe UI', 'Helvetica Neue', Arial, sans-serif" font-size="10" font-weight="600" letter-spacing="1.5" text-anchor="start" fill="#9aa8ad">ITINERARY</text><rect x="446" y="124" width="30" height="30" rx="6" fill="#4ECDC4" fill-opacity=".22"/><text x="461" y="143" font-family="'Poppins', 'Segoe UI', 'Helvetica Neue', Arial, sans-serif" font-size="9" font-weight="800" letter-spacing="0" text-anchor="middle" fill="#4ECDC4">D1</text><rect x="486" y="130" width="80" height="6" rx="3.0" fill="#fff" fill-opacity="0.3"/><rect x="486" y="142" width="56" height="5" rx="2.5" fill="#fff" fill-opacity="0.18"/><rect x="446" y="164" width="30" height="30" rx="6" fill="#B19CD9" fill-opacity=".22"/><text x="461" y="183" font-family="'Poppins', 'Segoe UI', 'Helvetica Neue', Arial, sans-serif" font-size="9" font-weight="800" letter-spacing="0" text-anchor="middle" fill="#B19CD9">D2</text><rect x="486" y="170" width="80" height="6" rx="3.0" fill="#fff" fill-opacity="0.3"/><rect x="486" y="182" width="56" height="5" rx="2.5" fill="#fff" fill-opacity="0.18"/><rect x="446" y="204" width="30" height="30" rx="6" fill="#FF6B6B" fill-opacity=".22"/><text x="461" y="223" font-family="'Poppins', 'Segoe UI', 'Helvetica Neue', Arial, sans-serif" font-size="9" font-weight="800" letter-spacing="0" text-anchor="middle" fill="#FF6B6B">D3</text><rect x="486" y="210" width="80" height="6" rx="3.0" fill="#fff" fill-opacity="0.3"/><rect x="486" y="222" width="56" height="5" rx="2.5" fill="#fff" fill-opacity="0.18"/><rect x="446" y="244" width="30" height="30" rx="6" fill="#FFE66D" fill-opacity=".22"/><text x="461" y="263" font-family="'Poppins', 'Segoe UI', 'Helvetica Neue', Arial, sans-serif" font-size="9" font-weight="800" letter-spacing="0" text-anchor="middle" fill="#FFE66D">D4</text><rect x="486" y="250" width="80" height="6" rx="3.0" fill="#fff" fill-opacity="0.3"/><rect x="486" y="262" width="56" height="5" rx="2.5" fill="#fff" fill-opacity="0.18"/>
<rect x="32" y="321" width="18" height="3" rx="1.5" fill="#FFE66D"/>
<text x="58" y="327" font-family="'Poppins', 'Segoe UI', 'Helvetica Neue', Arial, sans-serif" font-size="12" font-weight="600" letter-spacing="2" fill="#dbe3e7" fill-opacity="0.8">ITINERARY PLANNER</text>
</svg>
